<mxfile host="65bd71144e">
    <diagram id="kb6ERmdoE3fj__gCxbpV" name="Page-1">
        <mxGraphModel dx="1631" dy="442" grid="1" gridSize="10" guides="1" tooltips="1" connect="1" arrows="1" fold="1" page="0" pageScale="1" pageWidth="827" pageHeight="1169" math="0" shadow="0">
            <root>
                <mxCell id="0"/>
                <mxCell id="1" parent="0"/>
                <mxCell id="EBAIrEwSQ_sO8G7dM4pI-14" style="edgeStyle=orthogonalEdgeStyle;rounded=0;orthogonalLoop=1;jettySize=auto;html=1;exitX=0;exitY=0.5;exitDx=0;exitDy=0;entryX=0.5;entryY=0;entryDx=0;entryDy=0;" parent="1" source="EBAIrEwSQ_sO8G7dM4pI-9" target="EBAIrEwSQ_sO8G7dM4pI-12" edge="1">
                    <mxGeometry relative="1" as="geometry">
                        <Array as="points">
                            <mxPoint x="-145" y="155"/>
                        </Array>
                        <mxPoint x="-145" y="72.5" as="targetPoint"/>
                    </mxGeometry>
                </mxCell>
                <object label="" type="initialstate" id="EBAIrEwSQ_sO8G7dM4pI-9">
                    <mxCell style="ellipse;whiteSpace=wrap;html=1;aspect=fixed;glass=0;sketch=0;fillColor=#000000;" parent="1" vertex="1">
                        <mxGeometry x="-100" y="140" width="30" height="30" as="geometry"/>
                    </mxCell>
                </object>
                <object label="UnFasten" type="state" id="EBAIrEwSQ_sO8G7dM4pI-12">
                    <mxCell style="swimlane;rounded=1;whiteSpace=wrap;html=1;glass=0;sketch=0;startSize=23;" parent="1" vertex="1">
                        <mxGeometry x="-270" y="240" width="250" height="90" as="geometry"/>
                    </mxCell>
                </object>
                <object label="OnAlarm" type="state" id="2">
                    <mxCell style="swimlane;rounded=1;whiteSpace=wrap;html=1;glass=0;sketch=0;startSize=23;" parent="1" vertex="1">
                        <mxGeometry x="-270" y="460" width="250" height="85" as="geometry"/>
                    </mxCell>
                </object>
                <mxCell id="5" style="edgeStyle=orthogonalEdgeStyle;rounded=0;orthogonalLoop=1;jettySize=auto;html=1;entryX=0.25;entryY=0;entryDx=0;entryDy=0;exitX=0.25;exitY=1;exitDx=0;exitDy=0;" parent="1" source="EBAIrEwSQ_sO8G7dM4pI-12" target="2" edge="1">
                    <mxGeometry relative="1" as="geometry">
                        <mxPoint x="-278" y="432.5" as="targetPoint"/>
                        <mxPoint x="-278" y="350" as="sourcePoint"/>
                        <Array as="points">
                            <mxPoint x="-207" y="360"/>
                            <mxPoint x="-207" y="360"/>
                        </Array>
                    </mxGeometry>
                </mxCell>
                <mxCell id="6" value="speedSensorOn" style="edgeLabel;html=1;align=center;verticalAlign=middle;resizable=0;points=[];" parent="5" vertex="1" connectable="0">
                    <mxGeometry x="-0.0875" y="1" relative="1" as="geometry">
                        <mxPoint x="-56" y="5" as="offset"/>
                    </mxGeometry>
                </mxCell>
                <mxCell id="7" style="edgeStyle=orthogonalEdgeStyle;rounded=0;orthogonalLoop=1;jettySize=auto;html=1;exitX=0;exitY=0.5;exitDx=0;exitDy=0;entryX=0.5;entryY=1;entryDx=0;entryDy=0;" parent="1" source="2" target="16" edge="1">
                    <mxGeometry relative="1" as="geometry">
                        <mxPoint x="-495" y="330" as="targetPoint"/>
                        <mxPoint x="-410" y="428.75" as="sourcePoint"/>
                        <Array as="points">
                            <mxPoint x="-270" y="500"/>
                            <mxPoint x="-515" y="500"/>
                        </Array>
                    </mxGeometry>
                </mxCell>
                <mxCell id="8" value="fastenSeatbelt" style="edgeLabel;html=1;align=center;verticalAlign=middle;resizable=0;points=[];" parent="7" vertex="1" connectable="0">
                    <mxGeometry x="-0.0875" y="1" relative="1" as="geometry">
                        <mxPoint x="-46" y="-91" as="offset"/>
                    </mxGeometry>
                </mxCell>
                <mxCell id="9" style="edgeStyle=orthogonalEdgeStyle;rounded=0;orthogonalLoop=1;jettySize=auto;html=1;entryX=0.75;entryY=1;entryDx=0;entryDy=0;exitX=0.75;exitY=0;exitDx=0;exitDy=0;" parent="1" source="2" target="EBAIrEwSQ_sO8G7dM4pI-12" edge="1">
                    <mxGeometry relative="1" as="geometry">
                        <mxPoint x="-135" y="420" as="targetPoint"/>
                        <mxPoint x="-135" y="335" as="sourcePoint"/>
                        <Array as="points">
                            <mxPoint x="-82" y="360"/>
                            <mxPoint x="-82" y="360"/>
                        </Array>
                    </mxGeometry>
                </mxCell>
                <mxCell id="10" value="speedSensorOff" style="edgeLabel;html=1;align=center;verticalAlign=middle;resizable=0;points=[];" parent="9" vertex="1" connectable="0">
                    <mxGeometry x="-0.0875" y="1" relative="1" as="geometry">
                        <mxPoint x="54" y="-1" as="offset"/>
                    </mxGeometry>
                </mxCell>
                <mxCell id="11" style="edgeStyle=orthogonalEdgeStyle;rounded=0;orthogonalLoop=1;jettySize=auto;html=1;exitX=0;exitY=0.5;exitDx=0;exitDy=0;entryX=1;entryY=0.5;entryDx=0;entryDy=0;" parent="1" source="EBAIrEwSQ_sO8G7dM4pI-12" target="16" edge="1">
                    <mxGeometry relative="1" as="geometry">
                        <mxPoint x="-400" y="200" as="targetPoint"/>
                        <mxPoint x="-310" y="200" as="sourcePoint"/>
                        <Array as="points">
                            <mxPoint x="-350" y="285"/>
                            <mxPoint x="-350" y="285"/>
                        </Array>
                    </mxGeometry>
                </mxCell>
                <mxCell id="12" value="fastenSeatbelt" style="edgeLabel;html=1;align=center;verticalAlign=middle;resizable=0;points=[];" parent="11" vertex="1" connectable="0">
                    <mxGeometry x="-0.0875" y="1" relative="1" as="geometry">
                        <mxPoint x="-6" y="-26" as="offset"/>
                    </mxGeometry>
                </mxCell>
                <mxCell id="14" style="edgeStyle=orthogonalEdgeStyle;rounded=0;orthogonalLoop=1;jettySize=auto;html=1;exitX=1;exitY=0.75;exitDx=0;exitDy=0;entryX=0;entryY=0.75;entryDx=0;entryDy=0;" parent="1" source="16" target="EBAIrEwSQ_sO8G7dM4pI-12" edge="1">
                    <mxGeometry relative="1" as="geometry">
                        <mxPoint x="-280" y="360" as="targetPoint"/>
                        <mxPoint x="-430" y="308.125" as="sourcePoint"/>
                        <Array as="points"/>
                    </mxGeometry>
                </mxCell>
                <mxCell id="15" value="unfastenSeatbelt" style="edgeLabel;html=1;align=center;verticalAlign=middle;resizable=0;points=[];" parent="14" vertex="1" connectable="0">
                    <mxGeometry x="-0.0875" y="1" relative="1" as="geometry">
                        <mxPoint x="2" y="24" as="offset"/>
                    </mxGeometry>
                </mxCell>
                <object label="Fasten" type="state" id="16">
                    <mxCell style="swimlane;rounded=1;whiteSpace=wrap;html=1;glass=0;sketch=0;startSize=23;" parent="1" vertex="1">
                        <mxGeometry x="-590" y="240" width="150" height="90" as="geometry"/>
                    </mxCell>
                </object>
            </root>
        </mxGraphModel>
    </diagram>
</mxfile>